<?xml version="1.0" encoding="utf-8"?>
<!-- Generator: Adobe Illustrator 21.0.2, SVG Export Plug-In . SVG Version: 6.00 Build 0)  -->
<svg version="1.1" id="Layer_1" xmlns="http://www.w3.org/2000/svg" xmlns:xlink="http://www.w3.org/1999/xlink" x="0px" y="0px"
	 viewBox="0 0 24 24" style="enable-background:new 0 0 24 24;" xml:space="preserve">
<style type="text/css">
	.st0{fill:#FFFFFF;}
</style>
<g>
	<g>
		<path class="st0" d="M23.7,15.2c-0.3-0.3-0.8-0.4-1.2-0.2c-1.3,0.5-2.6,0.8-4,0.8c-2.7,0-5.3-1.1-7.2-3C8.3,9.8,7.4,5.4,9.1,1.6
			c0.2-0.4,0.1-0.9-0.2-1.2C8.5,0,8-0.1,7.6,0.1C6.1,0.7,4.8,1.6,3.6,2.7C1.3,5.1,0,8.2,0,11.6s1.3,6.5,3.6,8.8S9.1,24,12.5,24
			s6.5-1.3,8.8-3.6c1.1-1.1,2-2.5,2.7-3.9C24.1,16,24,15.5,23.7,15.2z"/>
	</g>
</g>
</svg>
