<?xml version="1.0" encoding="utf-8"?>
<!-- Generator: Adobe Illustrator 21.0.2, SVG Export Plug-In . SVG Version: 6.00 Build 0)  -->
<svg version="1.1" id="Layer_1" xmlns="http://www.w3.org/2000/svg" xmlns:xlink="http://www.w3.org/1999/xlink" x="0px" y="0px"
	 viewBox="0 0 24 24" style="enable-background:new 0 0 24 24;" xml:space="preserve">
<style type="text/css">
	.st0{fill:#0A0A49;}
</style>
<path class="st0" d="M12,0c-0.5,0-0.9,0.4-0.9,0.9v2.6c0,0.5,0.3,0.9,0.9,0.9s0.9-0.3,0.9-0.9l0,0V0.9C12.9,0.3,12.5,0,12,0L12,0z
	 M4.1,3.3c-0.5,0-0.9,0.3-0.9,0.9c0,0.3,0.1,0.4,0.3,0.6l1.8,1.8c0.3,0.3,0.9,0.3,1.2,0s0.3-0.9,0-1.2l0,0L4.7,3.5
	C4.5,3.3,4.4,3.3,4.1,3.3z M19.9,3.3c-0.3,0-0.4,0.1-0.6,0.3l-1.8,1.8c-0.3,0.3-0.3,0.9,0,1.2s0.9,0.3,1.2,0l0,0l1.8-1.8
	c0.3-0.3,0.3-0.9,0-1.2C20.3,3.3,20.1,3.3,19.9,3.3z M12,6c-3.3,0-6,2.7-6,6s2.7,6,6,6s6-2.7,6-6S15.3,6,12,6z M0.9,11.1
	C0.3,11.1,0,11.5,0,12s0.3,0.9,0.9,0.9l0,0h2.6c0.5,0,0.9-0.3,0.9-0.9s-0.3-0.9-0.9-0.9l0,0H0.9z M20.6,11.1c-0.5,0-0.9,0.3-0.9,0.9
	s0.3,0.9,0.9,0.9l0,0h2.6c0.5,0,0.9-0.3,0.9-0.9s-0.3-0.9-0.9-0.9l0,0H20.6z M5.9,17.2c-0.3,0-0.4,0.1-0.6,0.3l-1.8,1.8
	c-0.3,0.3-0.3,0.9,0,1.2s0.9,0.3,1.2,0l0,0l1.8-1.8c0.3-0.3,0.3-0.9,0-1.2C6.4,17.3,6.2,17.2,5.9,17.2z M18.1,17.2
	c-0.5,0-0.9,0.3-0.9,0.9c0,0.3,0.1,0.4,0.3,0.6l1.8,1.8c0.3,0.3,0.9,0.3,1.2,0s0.3-0.9,0-1.2l0,0l-1.8-1.8
	C18.5,17.3,18.3,17.2,18.1,17.2z M12,19.7c-0.5,0-0.9,0.4-0.9,0.9v2.6c0,0.5,0.3,0.9,0.9,0.9s0.9-0.3,0.9-0.9l0,0v-2.6
	C12.9,20.1,12.5,19.7,12,19.7L12,19.7z"/>
</svg>
