<?xml version="1.0" encoding="utf-8"?>
<!-- Generator: Adobe Illustrator 21.0.2, SVG Export Plug-In . SVG Version: 6.00 Build 0)  -->
<svg version="1.1" id="Layer_1" xmlns="http://www.w3.org/2000/svg" xmlns:xlink="http://www.w3.org/1999/xlink" x="0px" y="0px"
	 viewBox="0 0 196.6 299.6" style="enable-background:new 0 0 196.6 299.6;" xml:space="preserve">
<style type="text/css">
	.st0{fill:#E4E7E7;}
	.st1{fill:#CB4E44;}
	.st2{fill:#FFFFFF;}
</style>
<g>
	<path class="st0" d="M121.7,166.3V46.8C121.7,21,100.8,0,74.9,0S28.1,21,28.1,46.8v119.5C11,180,0,201.1,0,224.7
		c0,41.4,33.5,74.9,74.9,74.9s74.9-33.5,74.9-74.9C149.8,201.1,138.8,180,121.7,166.3z"/>
	<path class="st0" d="M149.8,65.5h37.5c5.2,0,9.4-4.2,9.4-9.4s-4.2-9.4-9.4-9.4h-37.5c-5.2,0-9.4,4.2-9.4,9.4S144.6,65.5,149.8,65.5
		z M187.3,84.3h-37.5c-5.2,0-9.4,4.2-9.4,9.4c0,5.2,4.2,9.4,9.4,9.4h37.5c5.2,0,9.4-4.2,9.4-9.4C196.6,88.5,192.5,84.3,187.3,84.3z
		 M187.3,121.7h-37.5c-5.2,0-9.4,4.2-9.4,9.4c0,5.2,4.2,9.4,9.4,9.4h37.5c5.2,0,9.4-4.2,9.4-9.4
		C196.6,125.9,192.5,121.7,187.3,121.7z"/>
	<path class="st1" d="M103,176.1V46.8c0-15.5-12.6-28.1-28.1-28.1S46.8,31.3,46.8,46.8v129.3c-16.8,9.7-28.1,27.8-28.1,48.6
		c0,31,25.2,56.2,56.2,56.2s56.2-25.2,56.2-56.2C131.1,203.9,119.8,185.8,103,176.1z"/>
	<path class="st2" d="M103,176.1V46.8c0-15.5-12.6-28.1-28.1-28.1S46.8,31.3,46.8,46.8v129.3c-16.8,9.7-28.1,27.8-28.1,48.6
		c0,31,25.2,56.2,56.2,56.2s56.2-25.2,56.2-56.2C131.1,203.9,119.8,185.8,103,176.1z M74.9,266.9c-23.2,0-42.1-18.9-42.1-42.1
		c0-14.9,8.1-28.9,21.1-36.5l7-4.1V46.8c0-7.7,6.3-14,14-14s14,6.3,14,14v137.4l7,4.1c13,7.5,21.1,21.5,21.1,36.5
		C117,248,98.1,266.9,74.9,266.9z"/>
</g>
</svg>
